<?xml version="1.0" encoding="UTF-8" standalone="no"?><!-- Generator: Gravit.io --><svg xmlns="http://www.w3.org/2000/svg" xmlns:xlink="http://www.w3.org/1999/xlink" style="isolation:isolate" viewBox="0 0 276 177" width="276pt" height="177pt"><defs><clipPath id="_clipPath_rzryfDR5Z3mVPj3nqR3tJrY4wzusmV1Y"><rect width="276" height="177"/></clipPath></defs><g clip-path="url(#_clipPath_rzryfDR5Z3mVPj3nqR3tJrY4wzusmV1Y)"><g><path d="M 25.429 71.72 L 94.571 71.72 C 97.01 71.72 98.99 73.7 98.99 76.14 L 98.99 145.29 C 98.99 147.73 97.01 149.71 94.571 149.71 L 25.429 149.71 C 22.99 149.71 21.01 147.73 21.01 145.29 L 21.01 76.14 C 21.01 73.7 22.99 71.72 25.429 71.72 Z" style="stroke:none;fill:#FFFFFF;stroke-miterlimit:10;"/><defs><filter id="1huQnKhRhyQ8tOmnS3Bc5AniSXZXqAQi" x="-200%" y="-200%" width="400%" height="400%" filterUnits="objectBoundingBox" color-interpolation-filters="sRGB"><feGaussianBlur xmlns="http://www.w3.org/2000/svg" in="SourceGraphic" stdDeviation="7.728496313110251"/><feOffset xmlns="http://www.w3.org/2000/svg" dx="0" dy="10" result="pf_100_offsetBlur"/><feFlood xmlns="http://www.w3.org/2000/svg" flood-color="#000000" flood-opacity="0.33"/><feComposite xmlns="http://www.w3.org/2000/svg" in2="pf_100_offsetBlur" operator="in" result="pf_100_dropShadow"/><feBlend xmlns="http://www.w3.org/2000/svg" in="SourceGraphic" in2="pf_100_dropShadow" mode="normal"/></filter></defs><g filter="url(#1huQnKhRhyQ8tOmnS3Bc5AniSXZXqAQi)"><path d="M 227.652 92.22 L 253.348 92.22 C 254.254 92.22 254.99 92.956 254.99 93.862 L 254.99 119.558 C 254.99 120.464 254.254 121.2 253.348 121.2 L 227.652 121.2 C 226.746 121.2 226.01 120.464 226.01 119.558 L 226.01 93.862 C 226.01 92.956 226.746 92.22 227.652 92.22 Z" style="stroke:none;fill:#FFFFFF;stroke-miterlimit:10;"/></g><defs><filter id="lBqsJlJ12sEv1neAkJdbONuL47QZpQrK" x="-200%" y="-200%" width="400%" height="400%" filterUnits="objectBoundingBox" color-interpolation-filters="sRGB"><feGaussianBlur xmlns="http://www.w3.org/2000/svg" in="SourceGraphic" stdDeviation="7.728496313110251"/><feOffset xmlns="http://www.w3.org/2000/svg" dx="0" dy="10" result="pf_100_offsetBlur"/><feFlood xmlns="http://www.w3.org/2000/svg" flood-color="#000000" flood-opacity="0.33"/><feComposite xmlns="http://www.w3.org/2000/svg" in2="pf_100_offsetBlur" operator="in" result="pf_100_dropShadow"/><feBlend xmlns="http://www.w3.org/2000/svg" in="SourceGraphic" in2="pf_100_dropShadow" mode="normal"/></filter></defs><g filter="url(#lBqsJlJ12sEv1neAkJdbONuL47QZpQrK)"><path d="M 185.695 59.51 L 227.545 59.51 C 229.021 59.51 230.22 60.709 230.22 62.185 L 230.22 104.035 C 230.22 105.511 229.021 106.71 227.545 106.71 L 185.695 106.71 C 184.219 106.71 183.02 105.511 183.02 104.035 L 183.02 62.185 C 183.02 60.709 184.219 59.51 185.695 59.51 Z" style="stroke:none;fill:#FFFFFF;stroke-miterlimit:10;"/></g><defs><filter id="m086kOG4uNtgvBIU7IJruJPb2CiaF6k2" x="-200%" y="-200%" width="400%" height="400%" filterUnits="objectBoundingBox" color-interpolation-filters="sRGB"><feGaussianBlur xmlns="http://www.w3.org/2000/svg" in="SourceGraphic" stdDeviation="7.728496313110251"/><feOffset xmlns="http://www.w3.org/2000/svg" dx="0" dy="10" result="pf_100_offsetBlur"/><feFlood xmlns="http://www.w3.org/2000/svg" flood-color="#000000" flood-opacity="0.33"/><feComposite xmlns="http://www.w3.org/2000/svg" in2="pf_100_offsetBlur" operator="in" result="pf_100_dropShadow"/><feBlend xmlns="http://www.w3.org/2000/svg" in="SourceGraphic" in2="pf_100_dropShadow" mode="normal"/></filter></defs><g filter="url(#m086kOG4uNtgvBIU7IJruJPb2CiaF6k2)"><path d="M 120.429 71.72 L 189.571 71.72 C 192.01 71.72 193.99 73.7 193.99 76.14 L 193.99 145.29 C 193.99 147.73 192.01 149.71 189.571 149.71 L 120.429 149.71 C 117.99 149.71 116.01 147.73 116.01 145.29 L 116.01 76.14 C 116.01 73.7 117.99 71.72 120.429 71.72 Z" style="stroke:none;fill:#FFFFFF;stroke-miterlimit:10;"/></g><defs><filter id="8WZur7gqPICZjjI120dooFpeiPALde9P" x="-200%" y="-200%" width="400%" height="400%" filterUnits="objectBoundingBox" color-interpolation-filters="sRGB"><feGaussianBlur xmlns="http://www.w3.org/2000/svg" in="SourceGraphic" stdDeviation="7.728496313110251"/><feOffset xmlns="http://www.w3.org/2000/svg" dx="0" dy="10" result="pf_100_offsetBlur"/><feFlood xmlns="http://www.w3.org/2000/svg" flood-color="#000000" flood-opacity="0.33"/><feComposite xmlns="http://www.w3.org/2000/svg" in2="pf_100_offsetBlur" operator="in" result="pf_100_dropShadow"/><feBlend xmlns="http://www.w3.org/2000/svg" in="SourceGraphic" in2="pf_100_dropShadow" mode="normal"/></filter></defs><g filter="url(#8WZur7gqPICZjjI120dooFpeiPALde9P)"><path d="M 96.458 27.29 L 170.432 27.29 C 173.042 27.29 175.16 29.408 175.16 32.018 L 175.16 105.992 C 175.16 108.602 173.042 110.72 170.432 110.72 L 96.458 110.72 C 93.848 110.72 91.73 108.602 91.73 105.992 L 91.73 32.018 C 91.73 29.408 93.848 27.29 96.458 27.29 Z" style="stroke:none;fill:#FFFFFF;stroke-miterlimit:10;"/></g><path d=" M 187.127 76.502 L 191.653 76.502 L 191.653 90.36 L 191.653 90.36 Q 191.653 92.733 190.591 94.52 L 190.591 94.52 L 190.591 94.52 Q 189.529 96.307 187.523 97.259 L 187.523 97.259 L 187.523 97.259 Q 185.516 98.211 182.777 98.211 L 182.777 98.211 L 182.777 98.211 Q 178.646 98.211 176.361 96.094 L 176.361 96.094 L 176.361 96.094 Q 174.075 93.978 174.075 90.301 L 174.075 90.301 L 174.075 76.502 L 178.602 76.502 L 178.602 89.613 L 178.602 89.613 Q 178.602 92.088 179.598 93.245 L 179.598 93.245 L 179.598 93.245 Q 180.594 94.403 182.894 94.403 L 182.894 94.403 L 182.894 94.403 Q 185.12 94.403 186.124 93.238 L 186.124 93.238 L 186.124 93.238 Q 187.127 92.073 187.127 89.583 L 187.127 89.583 L 187.127 76.502 L 187.127 76.502 Z  M 207.972 93.055 L 207.972 93.055 L 207.972 93.055 Q 207.972 95.574 206.221 96.893 L 206.221 96.893 L 206.221 96.893 Q 204.471 98.211 200.985 98.211 L 200.985 98.211 L 200.985 98.211 Q 199.197 98.211 197.938 97.969 L 197.938 97.969 L 197.938 97.969 Q 196.678 97.728 195.579 97.259 L 195.579 97.259 L 195.579 93.568 L 195.579 93.568 Q 196.824 94.154 198.384 94.549 L 198.384 94.549 L 198.384 94.549 Q 199.945 94.945 201.131 94.945 L 201.131 94.945 L 201.131 94.945 Q 203.563 94.945 203.563 93.538 L 203.563 93.538 L 203.563 93.538 Q 203.563 93.011 203.24 92.681 L 203.24 92.681 L 203.24 92.681 Q 202.918 92.352 202.127 91.934 L 202.127 91.934 L 202.127 91.934 Q 201.336 91.517 200.018 90.96 L 200.018 90.96 L 200.018 90.96 Q 198.128 90.169 197.242 89.495 L 197.242 89.495 L 197.242 89.495 Q 196.356 88.822 195.953 87.95 L 195.953 87.95 L 195.953 87.95 Q 195.55 87.078 195.55 85.804 L 195.55 85.804 L 195.55 85.804 Q 195.55 83.621 197.242 82.427 L 197.242 82.427 L 197.242 82.427 Q 198.934 81.234 202.039 81.234 L 202.039 81.234 L 202.039 81.234 Q 204.998 81.234 207.796 82.523 L 207.796 82.523 L 206.448 85.745 L 206.448 85.745 Q 205.218 85.218 204.149 84.881 L 204.149 84.881 L 204.149 84.881 Q 203.079 84.544 201.966 84.544 L 201.966 84.544 L 201.966 84.544 Q 199.988 84.544 199.988 85.614 L 199.988 85.614 L 199.988 85.614 Q 199.988 86.214 200.626 86.654 L 200.626 86.654 L 200.626 86.654 Q 201.263 87.093 203.416 87.957 L 203.416 87.957 L 203.416 87.957 Q 205.335 88.734 206.229 89.407 L 206.229 89.407 L 206.229 89.407 Q 207.122 90.081 207.547 90.96 L 207.547 90.96 L 207.547 90.96 Q 207.972 91.839 207.972 93.055 Z  M 93.436 97.918 L 88.543 97.918 L 86.99 92.821 L 79.183 92.821 L 77.63 97.918 L 72.737 97.918 L 80.296 76.414 L 85.848 76.414 L 93.436 97.918 L 93.436 97.918 Z  M 80.325 89.012 L 85.906 89.012 L 85.906 89.012 Q 83.753 82.083 83.482 81.175 L 83.482 81.175 L 83.482 81.175 Q 83.211 80.267 83.094 79.74 L 83.094 79.74 L 83.094 79.74 Q 82.611 81.615 80.325 89.012 L 80.325 89.012 L 80.325 89.012 Z  M 104.891 81.234 L 104.891 81.234 L 104.891 81.234 Q 107.791 81.234 109.432 83.497 L 109.432 83.497 L 109.432 83.497 Q 111.072 85.76 111.072 89.7 L 111.072 89.7 L 111.072 89.7 Q 111.072 93.758 109.381 95.985 L 109.381 95.985 L 109.381 95.985 Q 107.689 98.211 104.774 98.211 L 104.774 98.211 L 104.774 98.211 Q 101.888 98.211 100.247 96.116 L 100.247 96.116 L 99.94 96.116 L 99.193 97.918 L 95.779 97.918 L 95.779 75.125 L 100.247 75.125 L 100.247 80.428 L 100.247 80.428 Q 100.247 81.439 100.071 83.665 L 100.071 83.665 L 100.247 83.665 L 100.247 83.665 Q 101.815 81.234 104.891 81.234 Z  M 103.455 84.808 L 103.455 84.808 L 103.455 84.808 Q 101.8 84.808 101.038 85.826 L 101.038 85.826 L 101.038 85.826 Q 100.277 86.844 100.247 89.188 L 100.247 89.188 L 100.247 89.671 L 100.247 89.671 Q 100.247 92.308 101.031 93.45 L 101.031 93.45 L 101.031 93.45 Q 101.815 94.593 103.514 94.593 L 103.514 94.593 L 103.514 94.593 Q 104.891 94.593 105.704 93.326 L 105.704 93.326 L 105.704 93.326 Q 106.517 92.059 106.517 89.642 L 106.517 89.642 L 106.517 89.642 Q 106.517 87.225 105.696 86.016 L 105.696 86.016 L 105.696 86.016 Q 104.876 84.808 103.455 84.808 Z  M 118.323 89.7 L 118.323 89.7 L 118.323 89.7 Q 118.323 92.132 119.122 93.377 L 119.122 93.377 L 119.122 93.377 Q 119.92 94.622 121.722 94.622 L 121.722 94.622 L 121.722 94.622 Q 123.509 94.622 124.293 93.385 L 124.293 93.385 L 124.293 93.385 Q 125.076 92.147 125.076 89.7 L 125.076 89.7 L 125.076 89.7 Q 125.076 87.269 124.285 86.053 L 124.285 86.053 L 124.285 86.053 Q 123.494 84.837 121.693 84.837 L 121.693 84.837 L 121.693 84.837 Q 119.905 84.837 119.114 86.046 L 119.114 86.046 L 119.114 86.046 Q 118.323 87.254 118.323 89.7 Z  M 129.647 89.7 L 129.647 89.7 L 129.647 89.7 Q 129.647 93.699 127.537 95.955 L 127.537 95.955 L 127.537 95.955 Q 125.428 98.211 121.663 98.211 L 121.663 98.211 L 121.663 98.211 Q 119.305 98.211 117.503 97.178 L 117.503 97.178 L 117.503 97.178 Q 115.701 96.146 114.735 94.212 L 114.735 94.212 L 114.735 94.212 Q 113.768 92.279 113.768 89.7 L 113.768 89.7 L 113.768 89.7 Q 113.768 85.687 115.862 83.46 L 115.862 83.46 L 115.862 83.46 Q 117.957 81.234 121.751 81.234 L 121.751 81.234 L 121.751 81.234 Q 124.11 81.234 125.911 82.259 L 125.911 82.259 L 125.911 82.259 Q 127.713 83.284 128.68 85.203 L 128.68 85.203 L 128.68 85.203 Q 129.647 87.122 129.647 89.7 Z  M 148.367 97.918 L 144.94 97.918 L 144.339 95.823 L 144.105 95.823 L 144.105 95.823 Q 143.387 96.966 142.069 97.589 L 142.069 97.589 L 142.069 97.589 Q 140.75 98.211 139.066 98.211 L 139.066 98.211 L 139.066 98.211 Q 136.18 98.211 134.715 96.666 L 134.715 96.666 L 134.715 96.666 Q 133.25 95.12 133.25 92.22 L 133.25 92.22 L 133.25 81.541 L 137.718 81.541 L 137.718 91.107 L 137.718 91.107 Q 137.718 92.879 138.348 93.765 L 138.348 93.765 L 138.348 93.765 Q 138.978 94.652 140.355 94.652 L 140.355 94.652 L 140.355 94.652 Q 142.23 94.652 143.065 93.399 L 143.065 93.399 L 143.065 93.399 Q 143.9 92.147 143.9 89.246 L 143.9 89.246 L 143.9 81.541 L 148.367 81.541 L 148.367 97.918 L 148.367 97.918 Z  M 159.954 94.652 L 159.954 94.652 L 159.954 94.652 Q 161.126 94.652 162.767 94.139 L 162.767 94.139 L 162.767 97.464 L 162.767 97.464 Q 161.097 98.211 158.665 98.211 L 158.665 98.211 L 158.665 98.211 Q 155.985 98.211 154.761 96.856 L 154.761 96.856 L 154.761 96.856 Q 153.538 95.501 153.538 92.791 L 153.538 92.791 L 153.538 84.896 L 151.4 84.896 L 151.4 83.006 L 153.861 81.512 L 155.15 78.055 L 158.006 78.055 L 158.006 81.541 L 162.591 81.541 L 162.591 84.896 L 158.006 84.896 L 158.006 92.791 L 158.006 92.791 Q 158.006 93.743 158.541 94.198 L 158.541 94.198 L 158.541 94.198 Q 159.075 94.652 159.954 94.652 Z " fill="rgb(102,97,97)"/></g></g></svg>