<?xml version="1.0" encoding="UTF-8" standalone="no"?><!-- Generator: Gravit.io --><svg xmlns="http://www.w3.org/2000/svg" xmlns:xlink="http://www.w3.org/1999/xlink" style="isolation:isolate" viewBox="0 0 267 146" width="267pt" height="146pt"><defs><clipPath id="_clipPath_jTLhzQOnSL9HnrYq4qOO8g7UFnj6Eom3"><rect width="267" height="146"/></clipPath></defs><g clip-path="url(#_clipPath_jTLhzQOnSL9HnrYq4qOO8g7UFnj6Eom3)"><g id="about us design title"><defs><filter id="9Li5LbjKxJQVLyXHUBirHPF1b9HhKc6v" x="-200%" y="-200%" width="400%" height="400%" filterUnits="objectBoundingBox" color-interpolation-filters="sRGB"><feGaussianBlur xmlns="http://www.w3.org/2000/svg" in="SourceGraphic" stdDeviation="7.728496313110251"/><feOffset xmlns="http://www.w3.org/2000/svg" dx="0" dy="10" result="pf_100_offsetBlur"/><feFlood xmlns="http://www.w3.org/2000/svg" flood-color="#000000" flood-opacity="0.33"/><feComposite xmlns="http://www.w3.org/2000/svg" in2="pf_100_offsetBlur" operator="in" result="pf_100_dropShadow"/><feBlend xmlns="http://www.w3.org/2000/svg" in="SourceGraphic" in2="pf_100_dropShadow" mode="normal"/></filter></defs><g filter="url(#9Li5LbjKxJQVLyXHUBirHPF1b9HhKc6v)"><path d="M 20.929 44.43 L 90.071 44.43 C 92.51 44.43 94.49 46.41 94.49 48.849 L 94.49 117.981 C 94.49 120.42 92.51 122.4 90.071 122.4 L 20.929 122.4 C 18.49 122.4 16.51 120.42 16.51 117.981 L 16.51 48.849 C 16.51 46.41 18.49 44.43 20.929 44.43 Z" style="stroke:none;fill:#FFFFFF;stroke-miterlimit:10;"/></g><defs><filter id="gvmmQLl0kXxwZ0SmSHtsCKOgirltrowV" x="-200%" y="-200%" width="400%" height="400%" filterUnits="objectBoundingBox" color-interpolation-filters="sRGB"><feGaussianBlur xmlns="http://www.w3.org/2000/svg" in="SourceGraphic" stdDeviation="7.728496313110251"/><feOffset xmlns="http://www.w3.org/2000/svg" dx="0" dy="10" result="pf_100_offsetBlur"/><feFlood xmlns="http://www.w3.org/2000/svg" flood-color="#000000" flood-opacity="0.33"/><feComposite xmlns="http://www.w3.org/2000/svg" in2="pf_100_offsetBlur" operator="in" result="pf_100_dropShadow"/><feBlend xmlns="http://www.w3.org/2000/svg" in="SourceGraphic" in2="pf_100_dropShadow" mode="normal"/></filter></defs><g filter="url(#gvmmQLl0kXxwZ0SmSHtsCKOgirltrowV)"><path d="M 223.152 64.92 L 248.848 64.92 C 249.754 64.92 250.49 65.656 250.49 66.562 L 250.49 92.258 C 250.49 93.164 249.754 93.9 248.848 93.9 L 223.152 93.9 C 222.246 93.9 221.51 93.164 221.51 92.258 L 221.51 66.562 C 221.51 65.656 222.246 64.92 223.152 64.92 Z" style="stroke:none;fill:#FFFFFF;stroke-miterlimit:10;"/></g><defs><filter id="15XTnOIWENPihSS7fGiaV92F9OOAkK9i" x="-200%" y="-200%" width="400%" height="400%" filterUnits="objectBoundingBox" color-interpolation-filters="sRGB"><feGaussianBlur xmlns="http://www.w3.org/2000/svg" in="SourceGraphic" stdDeviation="7.728496313110251"/><feOffset xmlns="http://www.w3.org/2000/svg" dx="0" dy="10" result="pf_100_offsetBlur"/><feFlood xmlns="http://www.w3.org/2000/svg" flood-color="#000000" flood-opacity="0.33"/><feComposite xmlns="http://www.w3.org/2000/svg" in2="pf_100_offsetBlur" operator="in" result="pf_100_dropShadow"/><feBlend xmlns="http://www.w3.org/2000/svg" in="SourceGraphic" in2="pf_100_dropShadow" mode="normal"/></filter></defs><g filter="url(#15XTnOIWENPihSS7fGiaV92F9OOAkK9i)"><path d="M 181.195 32.21 L 223.045 32.21 C 224.522 32.21 225.72 33.409 225.72 34.885 L 225.72 76.735 C 225.72 78.211 224.522 79.41 223.045 79.41 L 181.195 79.41 C 179.718 79.41 178.52 78.211 178.52 76.735 L 178.52 34.885 C 178.52 33.409 179.718 32.21 181.195 32.21 Z" style="stroke:none;fill:#FFFFFF;stroke-miterlimit:10;"/></g><defs><filter id="0Mz4g32pyYHvB4ZTIUW2aoDbbB7kERHX" x="-200%" y="-200%" width="400%" height="400%" filterUnits="objectBoundingBox" color-interpolation-filters="sRGB"><feGaussianBlur xmlns="http://www.w3.org/2000/svg" in="SourceGraphic" stdDeviation="7.728496313110251"/><feOffset xmlns="http://www.w3.org/2000/svg" dx="0" dy="10" result="pf_100_offsetBlur"/><feFlood xmlns="http://www.w3.org/2000/svg" flood-color="#000000" flood-opacity="0.33"/><feComposite xmlns="http://www.w3.org/2000/svg" in2="pf_100_offsetBlur" operator="in" result="pf_100_dropShadow"/><feBlend xmlns="http://www.w3.org/2000/svg" in="SourceGraphic" in2="pf_100_dropShadow" mode="normal"/></filter></defs><g filter="url(#0Mz4g32pyYHvB4ZTIUW2aoDbbB7kERHX)"><path d="M 115.929 44.43 L 185.071 44.43 C 187.51 44.43 189.49 46.41 189.49 48.849 L 189.49 117.981 C 189.49 120.42 187.51 122.4 185.071 122.4 L 115.929 122.4 C 113.49 122.4 111.51 120.42 111.51 117.981 L 111.51 48.849 C 111.51 46.41 113.49 44.43 115.929 44.43 Z" style="stroke:none;fill:#FFFFFF;stroke-miterlimit:10;"/></g><defs><filter id="dcHNFoNqgFPvGzXSJGlmnI3gX4E34b0T" x="-200%" y="-200%" width="400%" height="400%" filterUnits="objectBoundingBox" color-interpolation-filters="sRGB"><feGaussianBlur xmlns="http://www.w3.org/2000/svg" in="SourceGraphic" stdDeviation="7.728496313110251"/><feOffset xmlns="http://www.w3.org/2000/svg" dx="0" dy="10" result="pf_100_offsetBlur"/><feFlood xmlns="http://www.w3.org/2000/svg" flood-color="#000000" flood-opacity="0.33"/><feComposite xmlns="http://www.w3.org/2000/svg" in2="pf_100_offsetBlur" operator="in" result="pf_100_dropShadow"/><feBlend xmlns="http://www.w3.org/2000/svg" in="SourceGraphic" in2="pf_100_dropShadow" mode="normal"/></filter></defs><g filter="url(#dcHNFoNqgFPvGzXSJGlmnI3gX4E34b0T)"><path d="M 91.958 0 L 165.932 0 C 168.542 0 170.66 2.118 170.66 4.727 L 170.66 78.683 C 170.66 81.292 168.542 83.41 165.932 83.41 L 91.958 83.41 C 89.348 83.41 87.23 81.292 87.23 78.683 L 87.23 4.727 C 87.23 2.118 89.348 0 91.958 0 Z" style="stroke:none;fill:#FFFFFF;stroke-miterlimit:10;"/></g><path d=" M 182.627 49.205 L 187.153 49.205 L 187.153 63.062 L 187.153 63.062 Q 187.153 65.435 186.091 67.222 L 186.091 67.222 L 186.091 67.222 Q 185.029 69.01 183.023 69.962 L 183.023 69.962 L 183.023 69.962 Q 181.016 70.914 178.277 70.914 L 178.277 70.914 L 178.277 70.914 Q 174.146 70.914 171.861 68.797 L 171.861 68.797 L 171.861 68.797 Q 169.575 66.68 169.575 63.004 L 169.575 63.004 L 169.575 49.205 L 174.102 49.205 L 174.102 62.315 L 174.102 62.315 Q 174.102 64.791 175.098 65.948 L 175.098 65.948 L 175.098 65.948 Q 176.094 67.105 178.394 67.105 L 178.394 67.105 L 178.394 67.105 Q 180.62 67.105 181.624 65.941 L 181.624 65.941 L 181.624 65.941 Q 182.627 64.776 182.627 62.286 L 182.627 62.286 L 182.627 49.205 L 182.627 49.205 Z  M 203.472 65.758 L 203.472 65.758 L 203.472 65.758 Q 203.472 68.277 201.721 69.596 L 201.721 69.596 L 201.721 69.596 Q 199.971 70.914 196.485 70.914 L 196.485 70.914 L 196.485 70.914 Q 194.697 70.914 193.438 70.672 L 193.438 70.672 L 193.438 70.672 Q 192.178 70.43 191.079 69.962 L 191.079 69.962 L 191.079 66.27 L 191.079 66.27 Q 192.324 66.856 193.884 67.252 L 193.884 67.252 L 193.884 67.252 Q 195.445 67.647 196.631 67.647 L 196.631 67.647 L 196.631 67.647 Q 199.063 67.647 199.063 66.241 L 199.063 66.241 L 199.063 66.241 Q 199.063 65.714 198.74 65.384 L 198.74 65.384 L 198.74 65.384 Q 198.418 65.054 197.627 64.637 L 197.627 64.637 L 197.627 64.637 Q 196.836 64.22 195.518 63.663 L 195.518 63.663 L 195.518 63.663 Q 193.628 62.872 192.742 62.198 L 192.742 62.198 L 192.742 62.198 Q 191.856 61.524 191.453 60.653 L 191.453 60.653 L 191.453 60.653 Q 191.05 59.781 191.05 58.507 L 191.05 58.507 L 191.05 58.507 Q 191.05 56.324 192.742 55.13 L 192.742 55.13 L 192.742 55.13 Q 194.434 53.936 197.539 53.936 L 197.539 53.936 L 197.539 53.936 Q 200.498 53.936 203.296 55.225 L 203.296 55.225 L 201.948 58.448 L 201.948 58.448 Q 200.718 57.921 199.649 57.584 L 199.649 57.584 L 199.649 57.584 Q 198.579 57.247 197.466 57.247 L 197.466 57.247 L 197.466 57.247 Q 195.488 57.247 195.488 58.316 L 195.488 58.316 L 195.488 58.316 Q 195.488 58.917 196.126 59.356 L 196.126 59.356 L 196.126 59.356 Q 196.763 59.796 198.916 60.66 L 198.916 60.66 L 198.916 60.66 Q 200.835 61.436 201.729 62.11 L 201.729 62.11 L 201.729 62.11 Q 202.622 62.784 203.047 63.663 L 203.047 63.663 L 203.047 63.663 Q 203.472 64.542 203.472 65.758 Z  M 88.936 70.621 L 84.043 70.621 L 82.49 65.523 L 74.683 65.523 L 73.13 70.621 L 68.237 70.621 L 75.796 49.117 L 81.348 49.117 L 88.936 70.621 L 88.936 70.621 Z  M 75.825 61.715 L 81.406 61.715 L 81.406 61.715 Q 79.253 54.786 78.982 53.878 L 78.982 53.878 L 78.982 53.878 Q 78.711 52.97 78.594 52.442 L 78.594 52.442 L 78.594 52.442 Q 78.111 54.317 75.825 61.715 L 75.825 61.715 L 75.825 61.715 Z  M 100.391 53.936 L 100.391 53.936 L 100.391 53.936 Q 103.291 53.936 104.932 56.2 L 104.932 56.2 L 104.932 56.2 Q 106.572 58.463 106.572 62.403 L 106.572 62.403 L 106.572 62.403 Q 106.572 66.461 104.881 68.687 L 104.881 68.687 L 104.881 68.687 Q 103.189 70.914 100.274 70.914 L 100.274 70.914 L 100.274 70.914 Q 97.388 70.914 95.747 68.819 L 95.747 68.819 L 95.44 68.819 L 94.693 70.621 L 91.279 70.621 L 91.279 47.828 L 95.747 47.828 L 95.747 53.131 L 95.747 53.131 Q 95.747 54.141 95.571 56.368 L 95.571 56.368 L 95.747 56.368 L 95.747 56.368 Q 97.315 53.936 100.391 53.936 Z  M 98.955 57.511 L 98.955 57.511 L 98.955 57.511 Q 97.3 57.511 96.538 58.529 L 96.538 58.529 L 96.538 58.529 Q 95.777 59.547 95.747 61.89 L 95.747 61.89 L 95.747 62.374 L 95.747 62.374 Q 95.747 65.011 96.531 66.153 L 96.531 66.153 L 96.531 66.153 Q 97.315 67.296 99.014 67.296 L 99.014 67.296 L 99.014 67.296 Q 100.391 67.296 101.204 66.029 L 101.204 66.029 L 101.204 66.029 Q 102.017 64.762 102.017 62.345 L 102.017 62.345 L 102.017 62.345 Q 102.017 59.928 101.196 58.719 L 101.196 58.719 L 101.196 58.719 Q 100.376 57.511 98.955 57.511 Z  M 113.823 62.403 L 113.823 62.403 L 113.823 62.403 Q 113.823 64.835 114.622 66.08 L 114.622 66.08 L 114.622 66.08 Q 115.42 67.325 117.222 67.325 L 117.222 67.325 L 117.222 67.325 Q 119.009 67.325 119.793 66.087 L 119.793 66.087 L 119.793 66.087 Q 120.576 64.849 120.576 62.403 L 120.576 62.403 L 120.576 62.403 Q 120.576 59.971 119.785 58.756 L 119.785 58.756 L 119.785 58.756 Q 118.994 57.54 117.193 57.54 L 117.193 57.54 L 117.193 57.54 Q 115.405 57.54 114.614 58.748 L 114.614 58.748 L 114.614 58.748 Q 113.823 59.957 113.823 62.403 Z  M 125.147 62.403 L 125.147 62.403 L 125.147 62.403 Q 125.147 66.402 123.037 68.658 L 123.037 68.658 L 123.037 68.658 Q 120.928 70.914 117.163 70.914 L 117.163 70.914 L 117.163 70.914 Q 114.805 70.914 113.003 69.881 L 113.003 69.881 L 113.003 69.881 Q 111.201 68.848 110.235 66.915 L 110.235 66.915 L 110.235 66.915 Q 109.268 64.981 109.268 62.403 L 109.268 62.403 L 109.268 62.403 Q 109.268 58.389 111.362 56.163 L 111.362 56.163 L 111.362 56.163 Q 113.457 53.936 117.251 53.936 L 117.251 53.936 L 117.251 53.936 Q 119.61 53.936 121.411 54.962 L 121.411 54.962 L 121.411 54.962 Q 123.213 55.987 124.18 57.906 L 124.18 57.906 L 124.18 57.906 Q 125.147 59.825 125.147 62.403 Z  M 143.867 70.621 L 140.44 70.621 L 139.839 68.526 L 139.605 68.526 L 139.605 68.526 Q 138.887 69.669 137.569 70.291 L 137.569 70.291 L 137.569 70.291 Q 136.25 70.914 134.566 70.914 L 134.566 70.914 L 134.566 70.914 Q 131.68 70.914 130.215 69.368 L 130.215 69.368 L 130.215 69.368 Q 128.75 67.823 128.75 64.923 L 128.75 64.923 L 128.75 54.244 L 133.218 54.244 L 133.218 63.809 L 133.218 63.809 Q 133.218 65.582 133.848 66.468 L 133.848 66.468 L 133.848 66.468 Q 134.478 67.354 135.855 67.354 L 135.855 67.354 L 135.855 67.354 Q 137.73 67.354 138.565 66.102 L 138.565 66.102 L 138.565 66.102 Q 139.4 64.849 139.4 61.949 L 139.4 61.949 L 139.4 54.244 L 143.867 54.244 L 143.867 70.621 L 143.867 70.621 Z  M 155.454 67.354 L 155.454 67.354 L 155.454 67.354 Q 156.626 67.354 158.267 66.842 L 158.267 66.842 L 158.267 70.167 L 158.267 70.167 Q 156.597 70.914 154.165 70.914 L 154.165 70.914 L 154.165 70.914 Q 151.485 70.914 150.261 69.559 L 150.261 69.559 L 150.261 69.559 Q 149.038 68.204 149.038 65.494 L 149.038 65.494 L 149.038 57.598 L 146.9 57.598 L 146.9 55.709 L 149.361 54.215 L 150.65 50.758 L 153.506 50.758 L 153.506 54.244 L 158.091 54.244 L 158.091 57.598 L 153.506 57.598 L 153.506 65.494 L 153.506 65.494 Q 153.506 66.446 154.041 66.9 L 154.041 66.9 L 154.041 66.9 Q 154.575 67.354 155.454 67.354 Z " id="title" fill="rgb(102,97,97)"/></g></g></svg>