<?xml version="1.0" encoding="UTF-8" standalone="no"?><!-- Generator: Gravit.io --><svg xmlns="http://www.w3.org/2000/svg" xmlns:xlink="http://www.w3.org/1999/xlink" style="isolation:isolate" viewBox="0 0 1920 1048" width="1920pt" height="1048pt"><defs><clipPath id="_clipPath_UtkkMyS4Z4O8HcrKInu9edTuEYM8fzCQ"><rect width="1920" height="1048"/></clipPath></defs><g clip-path="url(#_clipPath_UtkkMyS4Z4O8HcrKInu9edTuEYM8fzCQ)"><g id="about us background"><linearGradient id="_lgradient_10" x1="0.4863719518978329" y1="0.2354384909157302" x2="0.49075721421261065" y2="1.1085522591836832" gradientTransform="matrix(-1920,0,0,999.074,1920,26.235)" gradientUnits="userSpaceOnUse"><stop offset="1.25%" stop-opacity="1" style="stop-color:rgb(10,5,40)"/><stop offset="96.66666666666667%" stop-opacity="1" style="stop-color:rgb(83,124,131)"/></linearGradient><rect x="0" y="26.235" width="1920" height="999.074" transform="matrix(-1,0,0,-1,1920,1051.545)" id="background" fill="url(#_lgradient_10)"/><path d=" M 1920 979.93 L 1840.004 972.343 C 1760.009 965.039 1600.017 949.44 1440.026 934.549 C 1280.034 919.659 1120.043 904.06 960.051 919.446 C 800.06 934.549 640.068 979.93 480.077 976.172 C 320.085 972.13 160.094 919.659 80.098 892.927 L 0.102 866.479 L 0.102 1048 L 80.098 1048 C 160.094 1048 320.085 1048 480.077 1048 C 640.068 1048 800.06 1048 960.051 1048 C 1120.043 1048 1280.034 1048 1440.026 1048 C 1600.017 1048 1760.009 1048 1840.004 1048 L 1920 1048 L 1920 979.93 Z " id="bottom curve" fill="rgb(255,255,255)"/><path d=" M 1920 136.141 Q 1575.576 78.89 1232.102 69.195 Q 482.714 48.042 0.102 196.117 L 0.102 0 L 1920.102 0.709 L 1920 136.141 Z " id="top curve" fill="rgb(255,255,255)"/></g><defs><filter id="JnAMhTgGRSeU3Az2OKFRdkTbBi3WTEbg" x="-200%" y="-200%" width="400%" height="400%" filterUnits="objectBoundingBox" color-interpolation-filters="sRGB"><feGaussianBlur xmlns="http://www.w3.org/2000/svg" in="SourceGraphic" stdDeviation="9.875300844529765"/><feOffset xmlns="http://www.w3.org/2000/svg" dx="-10" dy="13" result="pf_100_offsetBlur"/><feFlood xmlns="http://www.w3.org/2000/svg" flood-color="#000000" flood-opacity="0.33"/><feComposite xmlns="http://www.w3.org/2000/svg" in2="pf_100_offsetBlur" operator="in" result="pf_100_dropShadow"/><feBlend xmlns="http://www.w3.org/2000/svg" in="SourceGraphic" in2="pf_100_dropShadow" mode="normal"/></filter></defs><g filter="url(#JnAMhTgGRSeU3Az2OKFRdkTbBi3WTEbg)" style="mix-blend-mode:multiply;"><path d=" M 520.114 279.09 C 592.305 382.306 665.933 452.217 660.741 515.889 C 655.549 579.561 570.662 638.376 489.517 742.789 C 409.186 847.238 330.937 997.923 252.534 1000.931 C 173.287 1004.613 93.102 859.874 -37.348 746.336 C -167.799 632.797 -349.299 549.715 -343.71 476.83 C -338.12 403.946 -146.256 341.225 -6.006 246.461 C 133.399 152.369 220.374 26.199 299.224 31.729 C 377.26 37.225 447.954 175.164 520.114 279.09 Z " id="blob 5" fill="rgb(255,255,255)" style="mix-blend-mode:lighten;"/></g></g></svg>