<svg xmlns="http://www.w3.org/2000/svg" xmlns:xlink="http://www.w3.org/1999/xlink" width="365" height="369" viewBox="0 0 365 369">
  <defs>
    <clipPath id="clip-path">
      <rect id="Rectangle_2" data-name="Rectangle 2" width="365" height="369"/>
    </clipPath>
  </defs>
  <g id="bk_blob" clip-path="url(#clip-path)">
    <path id="Path_2" data-name="Path 2" d="M364.6,42.6C361.16,1.68,290.08-9.346,258.867,8.684c-29.942,17.3-49.48,43.723-76.7,48.906-23.349,4.846-50.569-6.761-68.111-5.521-3.255.23-32.906.45-50.206,35.721-18.914,38.561,7.137,58.71-4.6,87.9-9.8,32.341-56.5,36.4-58.8,63.329-3.266,32,21.535,29.862,23.833,57.546,0,20.208-18.391,32.848-20.765,45.675A24.185,24.185,0,0,0,23,368.677q.053.009,305.536,0A36.318,36.318,0,0,0,364.84,332.34Q364.6,42.606,364.6,42.6Z" fill="#ec7e7e"/>
  </g>
</svg>
