<svg xmlns="http://www.w3.org/2000/svg" width="364.686" height="368.364" viewBox="0 0 364.686 368.364">
  <g id="blobs" transform="translate(27.846 37.682)">
    <path id="blob2" d="M-12.83-47.806c7.381,1.465,16.4,4.677,20.172,10.875s2.423,15.383.282,24.961C5.426-2.391,2.44,7.638-4.266,13.442c-6.705,5.86-17.186,7.494-26.765,6.311-9.635-1.127-18.425-5.071-22.031-11.889s-2.028-16.566-5.8-25.3c-3.775-8.677-12.9-16.34-14.03-24.06s5.635-15.5,13.8-16.735c8.17-1.183,17.693,4.17,25.356,6.705S-20.212-49.271-12.83-47.806Z" transform="translate(186.147 165.642)" fill="#ec7e7e"/>
    <path id="blob1" d="M364.6,42.6C361.16,1.68,290.08-9.346,258.867,8.684c-29.942,17.3-49.48,43.723-76.7,48.906-23.349,4.846-50.569-6.761-68.111-5.521-3.255.23-32.906.45-50.206,35.721-18.914,38.561,7.137,58.71-4.6,87.9-9.8,32.341-56.5,36.4-58.8,63.329-3.266,32,21.535,29.862,23.833,57.546,0,20.208-18.391,32.848-20.765,45.675A24.185,24.185,0,0,0,23,368.677q.053.009,305.536,0a36.318,36.318,0,0,0,36.3-36.337Q364.6,42.606,364.6,42.6Z" transform="translate(-28 -38)" fill="#ec7e7e"/>
  </g>
</svg>
