<?xml version="1.0" encoding="UTF-8" standalone="no"?><!-- Generator: Gravit.io --><svg xmlns="http://www.w3.org/2000/svg" xmlns:xlink="http://www.w3.org/1999/xlink" style="isolation:isolate" viewBox="0 0 346 95.3" width="346pt" height="95.3pt"><defs><clipPath id="_clipPath_rMIIV9ONvcAFKQkqXQiNIw1K2P4MRygO"><rect width="346" height="95.3"/></clipPath></defs><g clip-path="url(#_clipPath_rMIIV9ONvcAFKQkqXQiNIw1K2P4MRygO)"><linearGradient id="_lgradient_2" x1="-0.3821159572604657" y1="0.941256233905932" x2="0.9228411280434405" y2="0.25780439233290087" gradientTransform="matrix(334.761,0,0,51.372,6.289,24.131)" gradientUnits="userSpaceOnUse"><stop offset="0%" stop-opacity="1" style="stop-color:rgb(255,255,255)"/><stop offset="100%" stop-opacity="1" style="stop-color:rgb(0,0,0)"/></linearGradient><path d=" M 6.289 74.819 L 6.289 24.849 L 21.841 24.849 L 21.841 24.849 Q 32.471 24.849 37.273 27.874 L 37.273 27.874 L 37.273 27.874 Q 42.075 30.898 42.075 37.495 L 42.075 37.495 L 42.075 37.495 Q 42.075 41.973 39.973 44.844 L 39.973 44.844 L 39.973 44.844 Q 37.871 47.715 34.385 48.296 L 34.385 48.296 L 34.385 48.638 L 34.385 48.638 Q 39.136 49.697 41.238 52.603 L 41.238 52.603 L 41.238 52.603 Q 43.34 55.508 43.34 60.327 L 43.34 60.327 L 43.34 60.327 Q 43.34 67.163 38.401 70.991 L 38.401 70.991 L 38.401 70.991 Q 33.462 74.819 24.985 74.819 L 24.985 74.819 L 6.289 74.819 L 6.289 74.819 Z  M 16.885 33.53 L 16.885 44.639 L 23.037 44.639 L 23.037 44.639 Q 27.344 44.639 29.275 43.306 L 29.275 43.306 L 29.275 43.306 Q 31.206 41.973 31.206 38.896 L 31.206 38.896 L 31.206 38.896 Q 31.206 36.025 29.104 34.778 L 29.104 34.778 L 29.104 34.778 Q 27.002 33.53 22.456 33.53 L 22.456 33.53 L 16.885 33.53 L 16.885 33.53 Z  M 23.447 53.047 L 16.885 53.047 L 16.885 66.069 L 23.789 66.069 L 23.789 66.069 Q 28.164 66.069 30.249 64.395 L 30.249 64.395 L 30.249 64.395 Q 32.334 62.72 32.334 59.268 L 32.334 59.268 L 32.334 59.268 Q 32.334 53.047 23.447 53.047 L 23.447 53.047 L 23.447 53.047 Z  M 74.916 33.53 L 74.916 47.031 L 78.334 47.031 L 78.334 47.031 Q 83.358 47.031 85.751 45.356 L 85.751 45.356 L 85.751 45.356 Q 88.144 43.682 88.144 40.093 L 88.144 40.093 L 88.144 40.093 Q 88.144 36.538 85.7 35.034 L 85.7 35.034 L 85.7 35.034 Q 83.256 33.53 78.129 33.53 L 78.129 33.53 L 74.916 33.53 L 74.916 33.53 Z  M 80.556 55.645 L 74.916 55.645 L 74.916 74.819 L 64.32 74.819 L 64.32 24.849 L 78.881 24.849 L 78.881 24.849 Q 89.066 24.849 93.954 28.557 L 93.954 28.557 L 93.954 28.557 Q 98.842 32.266 98.842 39.819 L 98.842 39.819 L 98.842 39.819 Q 98.842 44.229 96.415 47.664 L 96.415 47.664 L 96.415 47.664 Q 93.988 51.099 89.545 53.047 L 89.545 53.047 L 89.545 53.047 Q 100.824 69.897 104.242 74.819 L 104.242 74.819 L 92.484 74.819 L 80.556 55.645 L 80.556 55.645 Z  M 163.538 74.819 L 152.122 74.819 L 148.499 62.925 L 130.281 62.925 L 126.658 74.819 L 115.242 74.819 L 132.879 24.644 L 145.833 24.644 L 163.538 74.819 L 163.538 74.819 Z  M 132.947 54.038 L 145.97 54.038 L 145.97 54.038 Q 140.945 37.871 140.313 35.752 L 140.313 35.752 L 140.313 35.752 Q 139.681 33.633 139.407 32.402 L 139.407 32.402 L 139.407 32.402 Q 138.279 36.777 132.947 54.038 L 132.947 54.038 L 132.947 54.038 Z  M 225.158 24.849 L 225.158 74.819 L 211.691 74.819 L 189.953 37.017 L 189.646 37.017 L 189.646 37.017 Q 190.295 47.031 190.295 51.304 L 190.295 51.304 L 190.295 74.819 L 180.827 74.819 L 180.827 24.849 L 194.191 24.849 L 215.896 62.275 L 216.135 62.275 L 216.135 62.275 Q 215.622 52.534 215.622 48.501 L 215.622 48.501 L 215.622 24.849 L 225.158 24.849 L 225.158 24.849 Z  M 290.196 49.355 L 290.196 49.355 L 290.196 49.355 Q 290.196 61.694 283.172 68.257 L 283.172 68.257 L 283.172 68.257 Q 276.148 74.819 262.887 74.819 L 262.887 74.819 L 248.736 74.819 L 248.736 24.849 L 264.425 24.849 L 264.425 24.849 Q 276.661 24.849 283.429 31.309 L 283.429 31.309 L 283.429 31.309 Q 290.196 37.769 290.196 49.355 Z  M 279.19 49.629 L 279.19 49.629 L 279.19 49.629 Q 279.19 33.53 264.972 33.53 L 264.972 33.53 L 259.332 33.53 L 259.332 66.069 L 263.878 66.069 L 263.878 66.069 Q 279.19 66.069 279.19 49.629 Z  M 341.05 60.942 L 341.05 60.942 L 341.05 60.942 Q 341.05 67.71 336.179 71.606 L 336.179 71.606 L 336.179 71.606 Q 331.309 75.503 322.627 75.503 L 322.627 75.503 L 322.627 75.503 Q 314.629 75.503 308.477 72.495 L 308.477 72.495 L 308.477 62.651 L 308.477 62.651 Q 313.535 64.907 317.039 65.83 L 317.039 65.83 L 317.039 65.83 Q 320.542 66.753 323.447 66.753 L 323.447 66.753 L 323.447 66.753 Q 326.934 66.753 328.796 65.42 L 328.796 65.42 L 328.796 65.42 Q 330.659 64.087 330.659 61.455 L 330.659 61.455 L 330.659 61.455 Q 330.659 59.985 329.839 58.84 L 329.839 58.84 L 329.839 58.84 Q 329.019 57.695 327.429 56.636 L 327.429 56.636 L 327.429 56.636 Q 325.84 55.576 320.952 53.252 L 320.952 53.252 L 320.952 53.252 Q 316.372 51.099 314.082 49.116 L 314.082 49.116 L 314.082 49.116 Q 311.792 47.134 310.425 44.502 L 310.425 44.502 L 310.425 44.502 Q 309.058 41.87 309.058 38.35 L 309.058 38.35 L 309.058 38.35 Q 309.058 31.719 313.552 27.925 L 313.552 27.925 L 313.552 27.925 Q 318.047 24.131 325.977 24.131 L 325.977 24.131 L 325.977 24.131 Q 329.873 24.131 333.411 25.054 L 333.411 25.054 L 333.411 25.054 Q 336.948 25.977 340.811 27.651 L 340.811 27.651 L 337.393 35.889 L 337.393 35.889 Q 333.394 34.248 330.779 33.599 L 330.779 33.599 L 330.779 33.599 Q 328.164 32.949 325.635 32.949 L 325.635 32.949 L 325.635 32.949 Q 322.627 32.949 321.021 34.351 L 321.021 34.351 L 321.021 34.351 Q 319.414 35.752 319.414 38.008 L 319.414 38.008 L 319.414 38.008 Q 319.414 39.409 320.063 40.452 L 320.063 40.452 L 320.063 40.452 Q 320.713 41.494 322.131 42.468 L 322.131 42.468 L 322.131 42.468 Q 323.55 43.442 328.848 45.972 L 328.848 45.972 L 328.848 45.972 Q 335.854 49.321 338.452 52.688 L 338.452 52.688 L 338.452 52.688 Q 341.05 56.055 341.05 60.942 Z " id="Compound Path" fill="url(#_lgradient_2)"/></g></svg>