<?xml version="1.0" encoding="UTF-8" standalone="no"?><!-- Generator: Gravit.io --><svg xmlns="http://www.w3.org/2000/svg" xmlns:xlink="http://www.w3.org/1999/xlink" style="isolation:isolate" viewBox="0 0 1920 1080" width="1920pt" height="1080pt"><defs><clipPath id="_clipPath_1fMEJneAdOUcnUOy7KnbGRtTdFEUPF3B"><rect width="1920" height="1080"/></clipPath></defs><g clip-path="url(#_clipPath_1fMEJneAdOUcnUOy7KnbGRtTdFEUPF3B)"><linearGradient id="_lgradient_14" x1="0.4863719518978329" y1="0.2354384909157302" x2="0.49075721421261065" y2="1.1085522591836832" gradientTransform="matrix(1920,0,0,1062,0,0)" gradientUnits="userSpaceOnUse"><stop offset="1.25%" stop-opacity="1" style="stop-color:rgb(255,64,0)"/><stop offset="96.66666666666667%" stop-opacity="1" style="stop-color:rgb(185,154,104)"/></linearGradient><rect x="0" y="0" width="1920" height="1062" transform="matrix(1,0,0,1,0,0)" id="background" fill="url(#_lgradient_14)"/><path d=" M 0 816.415 Q 126.134 974.112 688 995.415 Q 1436.304 1023.786 1920 816.415 L 1920 1093 L 0 1092 L 0 816.415 Z " id="curve border" fill="rgb(255,255,255)"/><defs><filter id="jTjCpD9nxaeX5YOFQdyoPMWh3NRlnMYq" x="-200%" y="-200%" width="400%" height="400%" filterUnits="objectBoundingBox" color-interpolation-filters="sRGB"><feGaussianBlur xmlns="http://www.w3.org/2000/svg" in="SourceGraphic" stdDeviation="9.875300844529765"/><feOffset xmlns="http://www.w3.org/2000/svg" dx="-10" dy="13" result="pf_100_offsetBlur"/><feFlood xmlns="http://www.w3.org/2000/svg" flood-color="#000000" flood-opacity="0.32"/><feComposite xmlns="http://www.w3.org/2000/svg" in2="pf_100_offsetBlur" operator="in" result="pf_100_dropShadow"/><feBlend xmlns="http://www.w3.org/2000/svg" in="SourceGraphic" in2="pf_100_dropShadow" mode="normal"/></filter></defs><g filter="url(#jTjCpD9nxaeX5YOFQdyoPMWh3NRlnMYq)" style="mix-blend-mode:multiply;"><path d=" M 388.144 612.691 C 408.338 648.912 396.158 712.059 396.158 756.935 C 396.478 801.49 408.98 827.454 415.711 859.829 C 422.442 892.524 423.724 931.63 408.98 968.492 C 394.555 1005.034 364.745 1039.652 327.241 1051.513 C 290.059 1063.052 245.824 1052.154 218.898 1024.587 C 191.973 997.02 182.677 952.465 156.713 922.655 C 130.749 892.844 88.117 877.458 64.077 846.686 C 40.036 815.914 34.907 770.077 57.345 743.151 C 79.463 716.226 129.467 708.212 168.253 680.325 C 207.359 652.759 235.246 605.639 275.314 586.407 C 315.702 567.495 368.271 576.47 388.144 612.691 Z " id="blob 1" fill="rgb(255,255,255)"/></g><defs><filter id="AevSTdo6iOSwBGpgxYREZnD6k11Mq2QP" x="-200%" y="-200%" width="400%" height="400%" filterUnits="objectBoundingBox" color-interpolation-filters="sRGB"><feGaussianBlur xmlns="http://www.w3.org/2000/svg" in="SourceGraphic" stdDeviation="9.875300844529765"/><feOffset xmlns="http://www.w3.org/2000/svg" dx="-10" dy="13" result="pf_100_offsetBlur"/><feFlood xmlns="http://www.w3.org/2000/svg" flood-color="#000000" flood-opacity="0.32"/><feComposite xmlns="http://www.w3.org/2000/svg" in2="pf_100_offsetBlur" operator="in" result="pf_100_dropShadow"/><feBlend xmlns="http://www.w3.org/2000/svg" in="SourceGraphic" in2="pf_100_dropShadow" mode="normal"/></filter></defs><g filter="url(#AevSTdo6iOSwBGpgxYREZnD6k11Mq2QP)" style="mix-blend-mode:multiply;"><path d=" M 2150.288 464.779 C 2203.614 511.341 2243.79 586.6 2223.762 642.76 C 2203.837 699.664 2123.387 737.893 2064.12 800.906 C 2005.276 864.24 1967.615 952.359 1918.45 950.329 C 1869.709 948.621 1810.208 856.664 1739.104 815.93 C 1668.745 775.096 1587.205 785.807 1531.218 755.903 C 1475.23 725.999 1444.795 655.48 1433.726 579.673 C 1422.658 503.867 1431.379 423.095 1460.479 344.478 C 1489.9 265.439 1539.701 188.554 1607.827 182.32 C 1675.852 175.341 1762.626 239.335 1824.781 283.938 C 1887.681 328.44 1926.064 354.296 1978.384 376.74 C 2031.025 398.762 2097.283 417.795 2150.288 464.779 Z " id="blob 2" fill="rgb(255,255,255)"/></g><defs><filter id="9aEsyRy4xQ4LmBq5oEjuxe36AKcepMmV" x="-200%" y="-200%" width="400%" height="400%" filterUnits="objectBoundingBox" color-interpolation-filters="sRGB"><feGaussianBlur xmlns="http://www.w3.org/2000/svg" in="SourceGraphic" stdDeviation="9.875300844529765"/><feOffset xmlns="http://www.w3.org/2000/svg" dx="-10" dy="13" result="pf_100_offsetBlur"/><feFlood xmlns="http://www.w3.org/2000/svg" flood-color="#000000" flood-opacity="0.32"/><feComposite xmlns="http://www.w3.org/2000/svg" in2="pf_100_offsetBlur" operator="in" result="pf_100_dropShadow"/><feBlend xmlns="http://www.w3.org/2000/svg" in="SourceGraphic" in2="pf_100_dropShadow" mode="normal"/></filter></defs><g filter="url(#9aEsyRy4xQ4LmBq5oEjuxe36AKcepMmV)" style="mix-blend-mode:multiply;"><path d=" M 433.725 -63.659 C 368.533 -105.904 271.586 -139.615 174.865 -124.196 C 77.835 -108.133 -19.276 -42.296 -48.036 45.949 C -76.487 133.551 -36.894 244.206 15.401 333.26 C 67.053 422.006 131.742 490.104 210.893 491.585 C 289.709 492.114 384.275 426.64 455.9 417.405 C 527.525 408.17 576.853 455.48 647.723 475.93 C 718.286 497.024 810.699 490.614 876.895 444.783 C 942.448 398.644 982.091 312.44 975.233 230.883 C 968.376 149.325 915.326 71.77 839.279 47.263 C 763.876 23.064 665.476 51.913 599.558 40.948 C 532.996 29.675 499.56 -21.105 433.725 -63.659 Z " id="blob 3" fill="rgb(255,255,255)"/></g></g></svg>