<?xml version="1.0" encoding="UTF-8" standalone="no"?><!-- Generator: Gravit.io --><svg xmlns="http://www.w3.org/2000/svg" xmlns:xlink="http://www.w3.org/1999/xlink" style="isolation:isolate" viewBox="0 0 1920 1080" width="1920pt" height="1080pt"><defs><clipPath id="_clipPath_5aUlLCva3oL0s9XGk674RGdC3nFxagy2"><rect width="1920" height="1080"/></clipPath></defs><g clip-path="url(#_clipPath_5aUlLCva3oL0s9XGk674RGdC3nFxagy2)"><g id="hero background"><linearGradient id="_lgradient_1" x1="0.4863719518978329" y1="0.2354384909157302" x2="0.49075721421261065" y2="1.1085522591836832" gradientTransform="matrix(1920,0,0,1061,0,0)" gradientUnits="userSpaceOnUse"><stop offset="1.25%" stop-opacity="1" style="stop-color:rgb(255,64,0)"/><stop offset="96.66666666666667%" stop-opacity="1" style="stop-color:rgb(185,154,104)"/></linearGradient><rect x="0" y="0" width="1920" height="1061" transform="matrix(1,0,0,1,0,0)" id="background" fill="url(#_lgradient_1)"/><path d=" M 0 818 Q 126.134 975.697 688 997 Q 1436.304 1025.371 1920 818 L 1920 1094.585 L 0 1093.585 L 0 818 Z " id="curve border" fill="rgb(255,255,255)"/></g><defs><filter id="86t0MFKlNZd0tmcBuZRj76YzHIguHebZ" x="-200%" y="-200%" width="400%" height="400%" filterUnits="objectBoundingBox" color-interpolation-filters="sRGB"><feGaussianBlur xmlns="http://www.w3.org/2000/svg" in="SourceGraphic" stdDeviation="9.875300844529765"/><feOffset xmlns="http://www.w3.org/2000/svg" dx="-10" dy="13" result="pf_100_offsetBlur"/><feFlood xmlns="http://www.w3.org/2000/svg" flood-color="#000000" flood-opacity="0.32"/><feComposite xmlns="http://www.w3.org/2000/svg" in2="pf_100_offsetBlur" operator="in" result="pf_100_dropShadow"/><feBlend xmlns="http://www.w3.org/2000/svg" in="SourceGraphic" in2="pf_100_dropShadow" mode="normal"/></filter></defs><g filter="url(#86t0MFKlNZd0tmcBuZRj76YzHIguHebZ)" style="mix-blend-mode:multiply;"><path d=" M 400.686 556.481 C 422.082 594.858 409.176 661.763 409.176 709.31 C 409.516 756.517 422.761 784.026 429.893 818.327 C 437.025 852.969 438.383 894.402 422.761 933.458 C 407.478 972.175 375.893 1008.854 336.158 1021.419 C 296.762 1033.646 249.895 1022.099 221.367 992.891 C 192.839 963.684 182.99 916.477 155.481 884.893 C 127.972 853.308 82.802 837.006 57.331 804.403 C 31.86 771.8 26.426 723.234 50.199 694.706 C 73.633 666.178 126.613 657.688 167.707 628.141 C 209.141 598.934 238.687 549.01 281.14 528.633 C 323.932 508.595 379.629 518.104 400.686 556.481 Z " id="blob 1" fill="rgb(255,255,255)"/></g><defs><filter id="7TxgF5RWjMpFahFIibSyZHGGT7fJ0aqG" x="-200%" y="-200%" width="400%" height="400%" filterUnits="objectBoundingBox" color-interpolation-filters="sRGB"><feGaussianBlur xmlns="http://www.w3.org/2000/svg" in="SourceGraphic" stdDeviation="9.875300844529765"/><feOffset xmlns="http://www.w3.org/2000/svg" dx="-10" dy="13" result="pf_100_offsetBlur"/><feFlood xmlns="http://www.w3.org/2000/svg" flood-color="#000000" flood-opacity="0.32"/><feComposite xmlns="http://www.w3.org/2000/svg" in2="pf_100_offsetBlur" operator="in" result="pf_100_dropShadow"/><feBlend xmlns="http://www.w3.org/2000/svg" in="SourceGraphic" in2="pf_100_dropShadow" mode="normal"/></filter></defs><g filter="url(#7TxgF5RWjMpFahFIibSyZHGGT7fJ0aqG)" style="mix-blend-mode:multiply;"><path d=" M 2261.365 494.986 C 2300.603 553.91 2319.62 637.074 2285.557 686.01 C 2251.396 735.691 2163.734 751.467 2090.008 796.718 C 2016.605 842.391 1957.139 917.538 1910.23 902.677 C 1863.645 888.237 1830.362 783.888 1772.441 725.922 C 1715.263 668.055 1633.771 656.992 1587.593 613.444 C 1541.416 569.895 1530.553 493.86 1539.767 417.806 C 1548.98 341.752 1578.592 266.099 1627.304 197.875 C 1676.436 129.326 1744.668 68.206 1812.043 80.068 C 1879.515 91.186 1946.454 175.709 1994.725 235.06 C 2043.742 294.51 2073.994 329.532 2118.59 364.92 C 2163.608 399.984 2222.548 435.738 2261.365 494.986 Z " id="blob 2" fill="rgb(255,255,255)"/></g><defs><filter id="Gm2XHgstldW1nCXvTSxPyqfc4cuyn98Z" x="-200%" y="-200%" width="400%" height="400%" filterUnits="objectBoundingBox" color-interpolation-filters="sRGB"><feGaussianBlur xmlns="http://www.w3.org/2000/svg" in="SourceGraphic" stdDeviation="9.875300844529765"/><feOffset xmlns="http://www.w3.org/2000/svg" dx="-10" dy="13" result="pf_100_offsetBlur"/><feFlood xmlns="http://www.w3.org/2000/svg" flood-color="#000000" flood-opacity="0.32"/><feComposite xmlns="http://www.w3.org/2000/svg" in2="pf_100_offsetBlur" operator="in" result="pf_100_dropShadow"/><feBlend xmlns="http://www.w3.org/2000/svg" in="SourceGraphic" in2="pf_100_dropShadow" mode="normal"/></filter></defs><g filter="url(#Gm2XHgstldW1nCXvTSxPyqfc4cuyn98Z)" style="mix-blend-mode:multiply;"><path d=" M 491.267 -75.659 C 426.075 -117.904 329.128 -151.615 232.406 -136.196 C 135.377 -120.133 38.265 -54.296 9.506 33.949 C -18.945 121.551 20.648 232.206 72.943 321.26 C 124.595 410.006 189.283 478.104 268.435 479.585 C 347.251 480.114 441.816 414.64 513.441 405.405 C 585.066 396.17 634.394 443.48 705.265 463.93 C 775.828 485.024 868.241 478.614 934.437 432.783 C 999.989 386.644 1039.632 300.44 1032.775 218.883 C 1025.917 137.325 972.867 59.77 896.821 35.263 C 821.417 11.064 723.018 39.913 657.1 28.948 C 590.538 17.675 557.102 -33.105 491.267 -75.659 Z " id="blob 3" fill="rgb(255,255,255)"/></g></g></svg>