<?xml version="1.0" encoding="UTF-8" standalone="no"?><!-- Generator: Gravit.io --><svg xmlns="http://www.w3.org/2000/svg" xmlns:xlink="http://www.w3.org/1999/xlink" style="isolation:isolate" viewBox="0 0 1920 2419.6" width="1920pt" height="2419.6pt"><defs><clipPath id="_clipPath_DKF3y3lNtum6PIdWCHqXDVvcgebldQaB"><rect width="1920" height="2419.6"/></clipPath></defs><g clip-path="url(#_clipPath_DKF3y3lNtum6PIdWCHqXDVvcgebldQaB)"><g id="Group"><linearGradient id="_lgradient_12" x1="0.49374999999999997" y1="0.16816608996539759" x2="0.4979694092827002" y2="1.0410236428743478" gradientTransform="matrix(1920,0,0,1279.156,0,1140.444)" gradientUnits="userSpaceOnUse"><stop offset="0%" stop-opacity="1" style="stop-color:rgb(130,50,227)"/><stop offset="98.75%" stop-opacity="1" style="stop-color:rgb(185,161,161)"/></linearGradient><rect x="0" y="1140.444" width="1920" height="1279.156" transform="matrix(1,0,0,1,0,0)" id="Rectangle" fill="url(#_lgradient_12)"/><g id="mail section" style="opacity:0.52;"><g id="mail" style="opacity:0.23;"><circle vector-effect="non-scaling-stroke" cx="615.319020349637" cy="1525.4854791298635" r="40.31902034963707" id="Ellipse" fill="rgb(235,235,235)"/><path d="M 707.583 1439.632 L 1053.329 1312.332 C 1071.963 1305.472 1092.661 1315.03 1099.522 1333.663 L 1101.618 1339.356 C 1108.478 1357.989 1098.92 1378.688 1080.287 1385.548 L 734.541 1512.848 C 715.907 1519.708 695.209 1510.15 688.348 1491.517 L 686.252 1485.824 C 679.392 1467.191 688.95 1446.492 707.583 1439.632 Z" style="stroke:none;fill:#EBEBEB;stroke-miterlimit:10;"/><path d="M 770.537 2008.445 L 922.055 1952.658 C 945.882 1943.885 971.267 1953.166 978.706 1973.371 L 978.706 1973.371 C 986.145 1993.576 972.84 2017.102 949.013 2025.875 L 797.495 2081.662 C 773.668 2090.435 748.283 2081.154 740.844 2060.949 L 740.844 2060.949 C 733.405 2040.744 746.71 2017.218 770.537 2008.445 Z" style="stroke:none;fill:#EBEBEB;stroke-miterlimit:10;"/><path d="M 1174.739 1882.005 L 1291.493 1839.018 C 1312.291 1831.36 1335.215 1841.547 1342.654 1861.752 L 1342.654 1861.752 C 1350.094 1881.957 1339.249 1904.578 1318.451 1912.235 L 1201.697 1955.222 C 1180.899 1962.88 1157.975 1952.693 1150.536 1932.488 L 1150.536 1932.488 C 1143.096 1912.283 1153.941 1889.662 1174.739 1882.005 Z" style="stroke:none;fill:#EBEBEB;stroke-miterlimit:10;"/><path d="M 681.323 1728.741 L 729.732 1710.92 C 737.142 1708.193 745.114 1711.293 747.525 1717.838 L 747.525 1717.838 C 749.935 1724.383 745.877 1731.912 738.467 1734.639 L 690.058 1752.46 C 682.648 1755.187 674.676 1752.087 672.265 1745.542 L 672.265 1745.542 C 669.855 1738.997 673.913 1731.468 681.323 1728.741 Z" style="stroke:none;fill:#EBEBEB;stroke-miterlimit:10;"/><path d="M 645.192 1825.825 L 681.387 1812.501 C 686.927 1810.461 692.888 1812.779 694.69 1817.673 L 694.69 1817.673 C 696.492 1822.567 693.458 1828.196 687.918 1830.235 L 651.723 1843.559 C 646.183 1845.599 640.222 1843.281 638.42 1838.387 L 638.42 1838.387 C 636.618 1833.493 639.652 1827.864 645.192 1825.825 Z" style="stroke:none;fill:#EBEBEB;stroke-miterlimit:10;"/><path d="M 1025.266 2156.518 L 1244.588 2075.762 C 1259.86 2070.139 1276.519 2077.145 1281.766 2091.398 L 1281.766 2091.398 C 1287.014 2105.652 1278.876 2121.789 1263.604 2127.412 L 1044.282 2208.168 C 1029.01 2213.791 1012.351 2206.785 1007.104 2192.532 L 1007.104 2192.532 C 1001.856 2178.278 1009.994 2162.141 1025.266 2156.518 Z" style="stroke:none;fill:#EBEBEB;stroke-miterlimit:10;"/><path d=" M 773.334 1638.754 L 847.161 1878.636 L 1240.942 1743.038 L 1167.115 1503.156 L 773.334 1638.754 Z  M 1154.629 1575.793 L 1013.659 1712.085 L 823.853 1689.695 L 819.015 1673.976 L 1008.82 1696.36 L 1149.792 1560.074 L 1154.629 1575.793 Z " id="Compound Path" fill="rgb(206,185,227)"/><path d="M 1189.396 1639.054 L 1276.837 1606.859 C 1295.528 1599.977 1316.289 1609.565 1323.171 1628.256 L 1325.191 1633.742 C 1332.073 1652.433 1322.485 1673.194 1303.794 1680.076 L 1216.353 1712.271 C 1197.662 1719.153 1176.901 1709.565 1170.019 1690.874 L 1167.999 1685.388 C 1161.117 1666.697 1170.705 1645.936 1189.396 1639.054 Z" style="stroke:none;fill:#EBEBEB;stroke-miterlimit:10;"/><path d="M 724.927 1811.569 L 848.505 1766.069 C 867.42 1759.105 887.772 1767.019 893.925 1783.732 L 893.925 1783.732 C 900.078 1800.444 889.718 1819.667 870.803 1826.631 L 747.225 1872.131 C 728.31 1879.095 707.958 1871.181 701.805 1854.468 L 701.805 1854.468 C 695.652 1837.756 706.012 1818.533 724.927 1811.569 Z" style="stroke:none;fill:#EBEBEB;stroke-miterlimit:10;"/></g></g><path d=" M 1919.04 1395.358 L 1865.733 1374.044 C 1812.426 1352.731 1705.813 1310.105 1599.2 1331.418 C 1492.586 1352.731 1385.973 1437.984 1279.36 1445.044 C 1172.746 1452.637 1066.133 1380.705 959.52 1338.478 C 852.907 1295.452 746.293 1282.132 639.68 1310.105 C 533.067 1338.079 426.453 1410.01 319.84 1388.298 C 213.227 1367.384 106.613 1252.826 53.307 1196.479 L 0 1144 L 53.307 1139.6 C 106.613 1139.6 213.227 1139.6 319.84 1139.6 C 426.453 1139.6 533.067 1139.6 639.68 1139.6 C 746.293 1139.6 852.907 1139.6 959.52 1139.6 C 1066.133 1139.6 1172.746 1139.6 1279.36 1139.6 C 1385.973 1139.6 1492.586 1139.6 1599.2 1139.6 C 1705.813 1139.6 1812.426 1139.6 1865.733 1139.6 L 1919.04 1139.6 L 1919.04 1395.358 Z " id="wave (8)" fill="rgb(255,255,255)"/><rect x="0" y="0" width="1919.04" height="1144" transform="matrix(1,0,0,1,0,0)" id="Rectangle" fill="rgb(255,255,255)"/></g><defs><filter id="WpRreiAfny5oZoKdHNa0BC5EZLN1LboZ" x="-200%" y="-200%" width="400%" height="400%" filterUnits="objectBoundingBox" color-interpolation-filters="sRGB"><feGaussianBlur xmlns="http://www.w3.org/2000/svg" in="SourceGraphic" stdDeviation="9.875300844529765"/><feOffset xmlns="http://www.w3.org/2000/svg" dx="-10" dy="13" result="pf_100_offsetBlur"/><feFlood xmlns="http://www.w3.org/2000/svg" flood-color="#000000" flood-opacity="0.33"/><feComposite xmlns="http://www.w3.org/2000/svg" in2="pf_100_offsetBlur" operator="in" result="pf_100_dropShadow"/><feBlend xmlns="http://www.w3.org/2000/svg" in="SourceGraphic" in2="pf_100_dropShadow" mode="normal"/></filter></defs><g filter="url(#WpRreiAfny5oZoKdHNa0BC5EZLN1LboZ)" style="mix-blend-mode:multiply;"><path d=" M 947.707 2007.111 C 975.29 2119.849 957.974 2247.832 880.294 2274.741 C 802.88 2302.554 664.834 2228.389 567.771 2198.125 C 470.442 2166.958 414.853 2179.469 352.448 2177.288 C 290.8 2174.882 222.068 2156.879 142.376 2118.529 C 63.71 2080.859 -26.674 2023.065 -88.152 1932.148 C -150.12 1842.359 -183.939 1719.672 -140.25 1641.878 C -96.56 1564.084 24.149 1532.311 110.07 1497.067 C 195.723 1460.919 246.588 1421.302 313.218 1351.465 C 378.823 1280.949 460.195 1180.214 508.438 1218.037 C 556.415 1254.957 570.997 1429.531 610.605 1532.813 C 649.456 1636.32 713.334 1668.536 781.001 1733.049 C 848.668 1797.563 920.125 1894.374 947.707 2007.111 Z " id="blob 7" fill="rgb(255,255,255)" style="mix-blend-mode:multiply;"/></g></g></svg>