<?xml version="1.0" encoding="UTF-8" standalone="no"?><!-- Generator: Gravit.io --><svg xmlns="http://www.w3.org/2000/svg" xmlns:xlink="http://www.w3.org/1999/xlink" style="isolation:isolate" viewBox="0 0 418 258" width="418pt" height="258pt"><defs><clipPath id="_clipPath_OA1TNSXtbrzmdXQIs0UZPqc1YCyc8WyF"><rect width="418" height="258"/></clipPath></defs><g clip-path="url(#_clipPath_OA1TNSXtbrzmdXQIs0UZPqc1YCyc8WyF)"><g><defs><filter id="3xdbW8nsJmgZIxnyoPi3UJ8criVpkMzp" x="-200%" y="-200%" width="400%" height="400%" filterUnits="objectBoundingBox" color-interpolation-filters="sRGB"><feGaussianBlur xmlns="http://www.w3.org/2000/svg" in="SourceGraphic" stdDeviation="7.728496313110251"/><feOffset xmlns="http://www.w3.org/2000/svg" dx="0" dy="10" result="pf_100_offsetBlur"/><feFlood xmlns="http://www.w3.org/2000/svg" flood-color="#000000" flood-opacity="0.33"/><feComposite xmlns="http://www.w3.org/2000/svg" in2="pf_100_offsetBlur" operator="in" result="pf_100_dropShadow"/><feBlend xmlns="http://www.w3.org/2000/svg" in="SourceGraphic" in2="pf_100_dropShadow" mode="normal"/></filter></defs><g filter="url(#3xdbW8nsJmgZIxnyoPi3UJ8criVpkMzp)"><rect x="280.006" y="91.691" width="125" height="111.607" transform="matrix(1,0,0,1,0,0)" fill="rgb(255,255,255)"/></g><defs><filter id="fSyIVKFH1vnWBMVH2H2fQjN8tIEMdt2V" x="-200%" y="-200%" width="400%" height="400%" filterUnits="objectBoundingBox" color-interpolation-filters="sRGB"><feGaussianBlur xmlns="http://www.w3.org/2000/svg" in="SourceGraphic" stdDeviation="7.728496313110251"/><feOffset xmlns="http://www.w3.org/2000/svg" dx="0" dy="10" result="pf_100_offsetBlur"/><feFlood xmlns="http://www.w3.org/2000/svg" flood-color="#000000" flood-opacity="0.33"/><feComposite xmlns="http://www.w3.org/2000/svg" in2="pf_100_offsetBlur" operator="in" result="pf_100_dropShadow"/><feBlend xmlns="http://www.w3.org/2000/svg" in="SourceGraphic" in2="pf_100_dropShadow" mode="normal"/></filter></defs><g filter="url(#fSyIVKFH1vnWBMVH2H2fQjN8tIEMdt2V)"><rect x="12.994" y="58.209" width="200" height="178.571" transform="matrix(1,0,0,1,0,0)" fill="rgb(255,255,255)"/></g><defs><filter id="lvVE9AhaXHcVrEQROdHjDwLTdjEfUbEx" x="-200%" y="-200%" width="400%" height="400%" filterUnits="objectBoundingBox" color-interpolation-filters="sRGB"><feGaussianBlur xmlns="http://www.w3.org/2000/svg" in="SourceGraphic" stdDeviation="7.728496313110251"/><feOffset xmlns="http://www.w3.org/2000/svg" dx="0" dy="10" result="pf_100_offsetBlur"/><feFlood xmlns="http://www.w3.org/2000/svg" flood-color="#000000" flood-opacity="0.33"/><feComposite xmlns="http://www.w3.org/2000/svg" in2="pf_100_offsetBlur" operator="in" result="pf_100_dropShadow"/><feBlend xmlns="http://www.w3.org/2000/svg" in="SourceGraphic" in2="pf_100_dropShadow" mode="normal"/></filter></defs><g filter="url(#lvVE9AhaXHcVrEQROdHjDwLTdjEfUbEx)"><rect x="94.07" y="36.78" width="273" height="144.643" transform="matrix(1,0,0,1,0,0)" fill="rgb(255,255,255)"/></g><path d=" M 130.502 118.447 L 112.865 118.447 L 112.865 89.892 L 118.92 89.892 L 118.92 113.447 L 130.502 113.447 L 130.502 118.447 L 130.502 118.447 Z  M 145.74 107.49 L 145.74 107.49 L 145.74 107.49 Q 145.74 110.732 146.805 112.392 L 146.805 112.392 L 146.805 112.392 Q 147.869 114.052 150.272 114.052 L 150.272 114.052 L 150.272 114.052 Q 152.654 114.052 153.699 112.402 L 153.699 112.402 L 153.699 112.402 Q 154.744 110.751 154.744 107.49 L 154.744 107.49 L 154.744 107.49 Q 154.744 104.247 153.69 102.626 L 153.69 102.626 L 153.69 102.626 Q 152.635 101.005 150.232 101.005 L 150.232 101.005 L 150.232 101.005 Q 147.85 101.005 146.795 102.616 L 146.795 102.616 L 146.795 102.616 Q 145.74 104.228 145.74 107.49 Z  M 160.838 107.49 L 160.838 107.49 L 160.838 107.49 Q 160.838 112.822 158.025 115.829 L 158.025 115.829 L 158.025 115.829 Q 155.213 118.837 150.193 118.837 L 150.193 118.837 L 150.193 118.837 Q 147.049 118.837 144.647 117.46 L 144.647 117.46 L 144.647 117.46 Q 142.244 116.083 140.955 113.505 L 140.955 113.505 L 140.955 113.505 Q 139.666 110.927 139.666 107.49 L 139.666 107.49 L 139.666 107.49 Q 139.666 102.138 142.459 99.169 L 142.459 99.169 L 142.459 99.169 Q 145.252 96.2 150.311 96.2 L 150.311 96.2 L 150.311 96.2 Q 153.455 96.2 155.857 97.568 L 155.857 97.568 L 155.857 97.568 Q 158.26 98.935 159.549 101.493 L 159.549 101.493 L 159.549 101.493 Q 160.838 104.052 160.838 107.49 Z  M 180.627 118.837 L 180.627 118.837 L 180.627 118.837 Q 170.432 118.837 170.432 107.646 L 170.432 107.646 L 170.432 107.646 Q 170.432 102.079 173.205 99.14 L 173.205 99.14 L 173.205 99.14 Q 175.979 96.2 181.154 96.2 L 181.154 96.2 L 181.154 96.2 Q 184.943 96.2 187.951 97.685 L 187.951 97.685 L 186.193 102.294 L 186.193 102.294 Q 184.787 101.728 183.576 101.366 L 183.576 101.366 L 183.576 101.366 Q 182.365 101.005 181.154 101.005 L 181.154 101.005 L 181.154 101.005 Q 176.506 101.005 176.506 107.607 L 176.506 107.607 L 176.506 107.607 Q 176.506 114.013 181.154 114.013 L 181.154 114.013 L 181.154 114.013 Q 182.873 114.013 184.338 113.554 L 184.338 113.554 L 184.338 113.554 Q 185.803 113.095 187.268 112.118 L 187.268 112.118 L 187.268 117.216 L 187.268 117.216 Q 185.822 118.134 184.348 118.486 L 184.348 118.486 L 184.348 118.486 Q 182.873 118.837 180.627 118.837 Z  M 216.354 118.447 L 212.193 118.447 L 211.041 115.478 L 210.885 115.478 L 210.885 115.478 Q 209.381 117.372 207.789 118.105 L 207.789 118.105 L 207.789 118.105 Q 206.197 118.837 203.639 118.837 L 203.639 118.837 L 203.639 118.837 Q 200.494 118.837 198.688 117.04 L 198.688 117.04 L 198.688 117.04 Q 196.881 115.243 196.881 111.923 L 196.881 111.923 L 196.881 111.923 Q 196.881 108.447 199.313 106.796 L 199.313 106.796 L 199.313 106.796 Q 201.744 105.146 206.647 104.97 L 206.647 104.97 L 210.436 104.853 L 210.436 103.896 L 210.436 103.896 Q 210.436 100.575 207.037 100.575 L 207.037 100.575 L 207.037 100.575 Q 204.42 100.575 200.885 102.157 L 200.885 102.157 L 198.912 98.134 L 198.912 98.134 Q 202.682 96.161 207.272 96.161 L 207.272 96.161 L 207.272 96.161 Q 211.666 96.161 214.01 98.075 L 214.01 98.075 L 214.01 98.075 Q 216.354 99.99 216.354 103.896 L 216.354 103.896 L 216.354 118.447 L 216.354 118.447 Z  M 210.436 110.126 L 210.436 108.329 L 208.131 108.407 L 208.131 108.407 Q 205.533 108.486 204.264 109.345 L 204.264 109.345 L 204.264 109.345 Q 202.994 110.204 202.994 111.962 L 202.994 111.962 L 202.994 111.962 Q 202.994 114.482 205.885 114.482 L 205.885 114.482 L 205.885 114.482 Q 207.955 114.482 209.195 113.29 L 209.195 113.29 L 209.195 113.29 Q 210.436 112.099 210.436 110.126 L 210.436 110.126 L 210.436 110.126 Z  M 237.686 114.091 L 237.686 114.091 L 237.686 114.091 Q 239.248 114.091 241.436 113.407 L 241.436 113.407 L 241.436 117.841 L 241.436 117.841 Q 239.209 118.837 235.967 118.837 L 235.967 118.837 L 235.967 118.837 Q 232.393 118.837 230.762 117.031 L 230.762 117.031 L 230.762 117.031 Q 229.131 115.224 229.131 111.611 L 229.131 111.611 L 229.131 101.083 L 226.279 101.083 L 226.279 98.564 L 229.561 96.572 L 231.279 91.962 L 235.088 91.962 L 235.088 96.611 L 241.201 96.611 L 241.201 101.083 L 235.088 101.083 L 235.088 111.611 L 235.088 111.611 Q 235.088 112.88 235.801 113.486 L 235.801 113.486 L 235.801 113.486 Q 236.514 114.091 237.686 114.091 Z  M 251.596 90.966 L 251.596 90.966 L 251.596 90.966 Q 251.596 88.056 254.838 88.056 L 254.838 88.056 L 254.838 88.056 Q 258.08 88.056 258.08 90.966 L 258.08 90.966 L 258.08 90.966 Q 258.08 92.353 257.27 93.124 L 257.27 93.124 L 257.27 93.124 Q 256.459 93.896 254.838 93.896 L 254.838 93.896 L 254.838 93.896 Q 251.596 93.896 251.596 90.966 Z  M 257.807 96.611 L 257.807 118.447 L 251.85 118.447 L 251.85 96.611 L 257.807 96.611 L 257.807 96.611 Z  M 274.803 107.49 L 274.803 107.49 L 274.803 107.49 Q 274.803 110.732 275.867 112.392 L 275.867 112.392 L 275.867 112.392 Q 276.932 114.052 279.334 114.052 L 279.334 114.052 L 279.334 114.052 Q 281.717 114.052 282.762 112.402 L 282.762 112.402 L 282.762 112.402 Q 283.807 110.751 283.807 107.49 L 283.807 107.49 L 283.807 107.49 Q 283.807 104.247 282.752 102.626 L 282.752 102.626 L 282.752 102.626 Q 281.697 101.005 279.295 101.005 L 279.295 101.005 L 279.295 101.005 Q 276.912 101.005 275.857 102.616 L 275.857 102.616 L 275.857 102.616 Q 274.803 104.228 274.803 107.49 Z  M 289.9 107.49 L 289.9 107.49 L 289.9 107.49 Q 289.9 112.822 287.088 115.829 L 287.088 115.829 L 287.088 115.829 Q 284.275 118.837 279.256 118.837 L 279.256 118.837 L 279.256 118.837 Q 276.111 118.837 273.709 117.46 L 273.709 117.46 L 273.709 117.46 Q 271.307 116.083 270.018 113.505 L 270.018 113.505 L 270.018 113.505 Q 268.729 110.927 268.729 107.49 L 268.729 107.49 L 268.729 107.49 Q 268.729 102.138 271.522 99.169 L 271.522 99.169 L 271.522 99.169 Q 274.315 96.2 279.373 96.2 L 279.373 96.2 L 279.373 96.2 Q 282.518 96.2 284.92 97.568 L 284.92 97.568 L 284.92 97.568 Q 287.322 98.935 288.611 101.493 L 288.611 101.493 L 288.611 101.493 Q 289.9 104.052 289.9 107.49 Z  M 320.979 104.208 L 320.979 118.447 L 315.022 118.447 L 315.022 105.693 L 315.022 105.693 Q 315.022 103.329 314.182 102.148 L 314.182 102.148 L 314.182 102.148 Q 313.342 100.966 311.506 100.966 L 311.506 100.966 L 311.506 100.966 Q 309.006 100.966 307.893 102.636 L 307.893 102.636 L 307.893 102.636 Q 306.779 104.306 306.779 108.173 L 306.779 108.173 L 306.779 118.447 L 300.822 118.447 L 300.822 96.611 L 305.373 96.611 L 306.174 99.404 L 306.506 99.404 L 306.506 99.404 Q 307.502 97.822 309.25 97.011 L 309.25 97.011 L 309.25 97.011 Q 310.998 96.2 313.225 96.2 L 313.225 96.2 L 313.225 96.2 Q 317.033 96.2 319.006 98.261 L 319.006 98.261 L 319.006 98.261 Q 320.979 100.322 320.979 104.208 L 320.979 104.208 L 320.979 104.208 Z  M 348.346 111.962 L 348.346 111.962 L 348.346 111.962 Q 348.346 115.322 346.012 117.079 L 346.012 117.079 L 346.012 117.079 Q 343.678 118.837 339.029 118.837 L 339.029 118.837 L 339.029 118.837 Q 336.647 118.837 334.967 118.515 L 334.967 118.515 L 334.967 118.515 Q 333.287 118.193 331.822 117.568 L 331.822 117.568 L 331.822 112.646 L 331.822 112.646 Q 333.482 113.427 335.563 113.954 L 335.563 113.954 L 335.563 113.954 Q 337.643 114.482 339.225 114.482 L 339.225 114.482 L 339.225 114.482 Q 342.467 114.482 342.467 112.607 L 342.467 112.607 L 342.467 112.607 Q 342.467 111.904 342.037 111.464 L 342.037 111.464 L 342.037 111.464 Q 341.607 111.025 340.553 110.468 L 340.553 110.468 L 340.553 110.468 Q 339.498 109.911 337.74 109.169 L 337.74 109.169 L 337.74 109.169 Q 335.221 108.115 334.039 107.216 L 334.039 107.216 L 334.039 107.216 Q 332.857 106.318 332.32 105.156 L 332.32 105.156 L 332.32 105.156 Q 331.783 103.993 331.783 102.294 L 331.783 102.294 L 331.783 102.294 Q 331.783 99.384 334.039 97.792 L 334.039 97.792 L 334.039 97.792 Q 336.295 96.2 340.436 96.2 L 340.436 96.2 L 340.436 96.2 Q 344.381 96.2 348.111 97.919 L 348.111 97.919 L 346.315 102.216 L 346.315 102.216 Q 344.674 101.513 343.248 101.064 L 343.248 101.064 L 343.248 101.064 Q 341.822 100.615 340.338 100.615 L 340.338 100.615 L 340.338 100.615 Q 337.701 100.615 337.701 102.04 L 337.701 102.04 L 337.701 102.04 Q 337.701 102.841 338.551 103.427 L 338.551 103.427 L 338.551 103.427 Q 339.4 104.013 342.272 105.165 L 342.272 105.165 L 342.272 105.165 Q 344.83 106.2 346.022 107.099 L 346.022 107.099 L 346.022 107.099 Q 347.213 107.997 347.779 109.169 L 347.779 109.169 L 347.779 109.169 Q 348.346 110.341 348.346 111.962 Z " fill="rgb(102,97,97)"/></g></g></svg>