<svg xmlns="http://www.w3.org/2000/svg" xmlns:xlink="http://www.w3.org/1999/xlink" width="176" height="22" viewBox="0 0 176 22"><defs><clipPath id="a"><rect width="37" height="14" fill="#fff"/></clipPath></defs><g transform="translate(-316 -36)"><text transform="translate(316 54)" fill="#fff" font-size="20" font-family="Arial-BoldMT, Arial" font-weight="700" letter-spacing="0.09em"><tspan x="0" y="0">SHOESTERS</tspan></text><g transform="translate(455 40)" clip-path="url(#a)"><path d="M32.849,13.425c-.032,0-.055.007-.087.007Q32.189,13.487,32.849,13.425ZM1.24,4A17.348,17.348,0,0,0,.454,8.637C.422,11.05,2.081,13.659,4.6,13.706c4.456.079,23.515.236,28.1-.2,1.367-.134,2.664-.252,3.45-1.352.786-1.084.305-1.934-.575-2.7-1.233-.715-3.8-.984-5.542-1.316A22.161,22.161,0,0,1,27.5,7.5l-.047-.024-1.477-.762A28.6,28.6,0,0,1,23.327,11.4a.707.707,0,0,1-.519.22.729.729,0,0,1-.487-.189.707.707,0,0,1-.032-1,35.33,35.33,0,0,0,2.258-3.911,4.274,4.274,0,0,0,.142-.456l-.951-.487c0,.015-.008.023-.008.039-.3,1.152-2.725,4.412-3.588,5.232a.714.714,0,0,1-.487.189.744.744,0,0,1-.519-.22.707.707,0,0,1,.032-1c.377-.354,2.864-3.346,3.187-4.565a3.251,3.251,0,0,0,.07-.345L21.5,4.435c-.039.189-.094.377-.149.558-.425,1.234-3.3,4.39-4.23,5.018a.717.717,0,0,1-.393.118.706.706,0,0,1-.393-1.3,20.039,20.039,0,0,0,3.68-4.3,3.268,3.268,0,0,0,.157-.786L17.781,2.525a11.561,11.561,0,0,1-1.14-.7C16.028,1.417,13.4-.2,13.123.291a3.531,3.531,0,0,0-.268.629c-.031.086-.063.18-.1.267a5.633,5.633,0,0,1-2.892,3.1,7.3,7.3,0,0,1-4.2.535A2.589,2.589,0,0,1,4.1,4.134,2.834,2.834,0,0,1,3.692,3.5a3.142,3.142,0,0,0-.26-.432,1.153,1.153,0,0,0-.9-.424.591.591,0,0,0-.118.008c-.675.07-.95.573-1.178,1.351Z" fill="#fff"/></g></g></svg>