<svg xmlns="http://www.w3.org/2000/svg" xmlns:xlink="http://www.w3.org/1999/xlink" width="258" height="302" viewBox="0 0 258 302">
  <defs>
    <clipPath id="clip-path">
      <rect id="Rectangle_4" data-name="Rectangle 4" width="258" height="302"/>
    </clipPath>
  </defs>
  <g id="mail" clip-path="url(#clip-path)">
    <g id="Group_1" data-name="Group 1">
      <circle id="Ellipse_1" data-name="Ellipse 1" cx="13.5" cy="13.5" r="13.5" transform="translate(0.091 58.942)" fill="#ebebeb"/>
      <path id="Path_4" data-name="Path 4" d="M44.486,43.694,160.248,1.074a12.051,12.051,0,0,1,15.466,7.142l.7,1.905a12.05,12.05,0,0,1-7.142,15.465L53.512,68.206a12.051,12.051,0,0,1-15.466-7.142l-.7-1.9A12.05,12.05,0,0,1,44.486,43.694Z" fill="#ebebeb"/>
      <path id="Path_5" data-name="Path 5" d="M65.563,234.147l50.729-18.679c7.977-2.938,16.476.17,18.967,6.935h0c2.491,6.765-1.964,14.643-9.942,17.58L74.588,258.662c-7.977,2.938-16.476-.17-18.967-6.935h0C53.13,244.962,57.585,237.084,65.563,234.147Z" fill="#ebebeb"/>
      <path id="Path_6" data-name="Path 6" d="M200.9,191.815l39.094-14.392a13.265,13.265,0,0,1,17.131,7.611h0a13.262,13.262,0,0,1-8.1,16.9l-39.094,14.392a13.265,13.265,0,0,1-17.131-7.611h0A13.262,13.262,0,0,1,200.9,191.815Z" fill="#ebebeb"/>
      <path id="Path_7" data-name="Path 7" d="M35.695,140.5,51.9,134.532a4.537,4.537,0,0,1,5.956,2.316h0a4.536,4.536,0,0,1-3.032,5.624l-16.206,5.966a4.537,4.537,0,0,1-5.956-2.316h0A4.536,4.536,0,0,1,35.695,140.5Z" fill="#ebebeb"/>
      <path id="Path_8" data-name="Path 8" d="M23.592,173l12.119-4.463a3.394,3.394,0,0,1,4.455,1.733h0a3.4,3.4,0,0,1-2.268,4.208l-12.119,4.463a3.394,3.394,0,0,1-4.455-1.733h0A3.4,3.4,0,0,1,23.592,173Z" fill="#ebebeb"/>
      <path id="Path_9" data-name="Path 9" d="M103.783,110.13l49.278-18.145c6.062-2.232,12.367-.286,14.071,4.343h0c1.7,4.629-1.834,10.2-7.9,12.432L109.959,126.9c-6.062,2.232-12.367.286-14.071-4.343h0C94.184,117.933,97.722,112.362,103.783,110.13Z" fill="#ebebeb"/>
      <path id="Path_10" data-name="Path 10" d="M150.855,283.727l73.433-27.037c5.114-1.883,10.691.463,12.448,5.235h0c1.757,4.772-.967,10.175-6.081,12.058L157.222,301.02c-5.114,1.883-10.691-.463-12.448-5.235h0C143.017,291.013,145.741,285.61,150.855,283.727Z" fill="#ebebeb"/>
      <path id="Path_11" data-name="Path 11" d="M67.27,111.1c-2.029,3.04,17.909,76.818,24.157,79.264s129.125-42.565,131.1-45.8-20.634-75.238-25.163-77.5S69.3,108.062,67.27,111.1Zm126.9-21.815-47.2,45.635-63.553-7.5-1.62-5.263,63.552,7.494,47.2-45.632Z" fill="#00b3ff"/>
      <path id="Path_12" data-name="Path 12" d="M205.81,110.467l29.275-10.781a12.087,12.087,0,0,1,15.512,7.165l.677,1.837A12.09,12.09,0,0,1,244.11,124.2l-29.275,10.781a12.087,12.087,0,0,1-15.512-7.165l-.677-1.837A12.09,12.09,0,0,1,205.81,110.467Z" fill="#ebebeb"/>
      <path id="Path_13" data-name="Path 13" d="M50.287,168.233,91.667,153c6.333-2.332,13.148.318,15.209,5.914h0c2.06,5.6-1.409,12.034-7.743,14.366l-41.38,15.236C51.42,190.845,44.6,188.2,42.544,182.6h0C40.484,177,43.953,170.565,50.287,168.233Z" fill="#ebebeb"/>
    </g>
  </g>
</svg>
