<?xml version="1.0" encoding="UTF-8" standalone="no"?><!-- Generator: Gravit.io --><svg xmlns="http://www.w3.org/2000/svg" xmlns:xlink="http://www.w3.org/1999/xlink" style="isolation:isolate" viewBox="0 0 1920 444" width="1920pt" height="444pt"><defs><clipPath id="_clipPath_9baZm6QbWSTczqJF67j4JeAD3RzIASDl"><rect width="1920" height="444"/></clipPath></defs><g clip-path="url(#_clipPath_9baZm6QbWSTczqJF67j4JeAD3RzIASDl)"><defs><filter id="a7nlnfjVKrRZYkJyqsRy24mzAixe8648" x="-200%" y="-200%" width="400%" height="400%" filterUnits="objectBoundingBox" color-interpolation-filters="sRGB"><feGaussianBlur xmlns="http://www.w3.org/2000/svg" in="SourceGraphic" stdDeviation="9.875300844529765"/><feOffset xmlns="http://www.w3.org/2000/svg" dx="-10" dy="13" result="pf_100_offsetBlur"/><feFlood xmlns="http://www.w3.org/2000/svg" flood-color="#000000" flood-opacity="0.33"/><feComposite xmlns="http://www.w3.org/2000/svg" in2="pf_100_offsetBlur" operator="in" result="pf_100_dropShadow"/><feBlend xmlns="http://www.w3.org/2000/svg" in="SourceGraphic" in2="pf_100_dropShadow" mode="normal"/></filter></defs><g filter="url(#a7nlnfjVKrRZYkJyqsRy24mzAixe8648)"><linearGradient id="_lgradient_15" x1="0" y1="0.5" x2="1" y2="0.5" gradientTransform="matrix(1921.251,0,0,387,0,0)" gradientUnits="userSpaceOnUse"><stop offset="0%" stop-opacity="1" style="stop-color:rgb(255,255,255)"/><stop offset="99.16666666666667%" stop-opacity="1" style="stop-color:rgb(236,126,126)"/></linearGradient><path d=" M 0 0 Q 233 122.432 372 125.4 C 566.231 129.547 683 64.184 830 61.587 C 926 58.99 1107.303 137.163 1212.5 134.304 C 1349 130.594 1514.5 63.813 1593 77.54 C 1715.5 93.864 1808.5 238.927 1920 239.09 C 1921.024 239.091 1921.953 310.256 1920.5 310.531 C 1820.5 329.452 1731.001 287.763 1647.5 287.529 C 1515 287.158 1375 382.135 1176.5 386.958 C 991 388.813 870 328.339 672.5 303.482 C 560.153 289.342 455 340.954 276 381.393 Q 160.5 395.12 0 363.585 L 0 0 Z " id="blob 6" fill="url(#_lgradient_15)"/></g></g></svg>